# xmcd CD database file
#
# Track frame offsets:
#	150
#	13612
#	26645
#	40585
#	53162
#	64566
#	74612
#	88374
#	100109
#	123722
#	137818
#	148878
#	160529
#	172928
#	186122
#	198784
#	210805
#	221825
#	232093
#	245802
#
# Disc length: 3457 seconds
#
# Revision: 0
# Processed by: cddbd v1.5.2PL0 Copyright (c) Steve Scherf et al.
# Submitted via: CDex 1.70beta2
#
DISCID=230d7f14
DTITLE=King, B.B. - Can't kick the Blues
DYEAR=0746
DGENRE=Blues
TTITLE0=Sweet little angel
TTITLE1=Blind Love
TTITLE2=When my heart beats like a hammer
TTITLE3=Be careful with a fool
TTITLE4=Sweet sixteen (Part2)
TTITLE5=Blues for me
TTITLE6=I love you so
TTITLE7=Don't you want a man like me
TTITLE8=You done lost your good thing now
TTITLE9=Things are not the same
TTITLE10=Days of old
TTITLE11=You know I go for you
TTITLE12=Ten long years
TTITLE13=Crying won't help
TTITLE14=We can't make it
TTITLE15=Don't lok now, but yout got the blues
TTITLE16=Did you ever love a woman
TTITLE17=I've got papers on you, baby
TTITLE18=You know I love you
TTITLE19=Boogie Rock (House Rocker)
EXTD=YEAR: 0746
EXTT0=
EXTT1=
EXTT2=
EXTT3=
EXTT4=
EXTT5=
EXTT6=
EXTT7=
EXTT8=
EXTT9=
EXTT10=
EXTT11=
EXTT12=
EXTT13=
EXTT14=
EXTT15=
EXTT16=
EXTT17=
EXTT18=
EXTT19=
PLAYORDER=
